<svg xmlns="http://www.w3.org/2000/svg" viewBox="0 0 100 100">
  <defs>
    <linearGradient id="grad" x1="0%" y1="0%" x2="100%" y2="100%">
      <stop offset="0%" style="stop-color:#f19340"/>
      <stop offset="100%" style="stop-color:#df5b13"/>
    </linearGradient>
  </defs>
  <rect width="100" height="100" rx="20" fill="url(#grad)"/>
  <path d="M50 20c-4 0-8 1-11 3-3 2-5 5-6 8-1 3 0 7 2 10l-8 8c-1 1-1 2 0 3l3 3c1 1 2 1 3 0l8-8c3 2 7 3 10 2 3-1 6-3 8-6 2-3 3-7 3-11 0-3-1-6-3-8-2-2-5-4-9-4zm0 8c2 0 4 1 5 2 1 1 2 3 2 5s-1 4-2 5c-1 1-3 2-5 2s-4-1-5-2c-1-1-2-3-2-5s1-4 2-5c1-1 3-2 5-2z" fill="white" transform="translate(10,10) scale(0.8)"/>
  <ellipse cx="50" cy="70" rx="25" ry="8" fill="white" opacity="0.9"/>
  <ellipse cx="50" cy="62" rx="22" ry="6" fill="white"/>
  <path d="M28 62 Q50 50 72 62" stroke="white" stroke-width="3" fill="none"/>
</svg>
